<svg id="bestagon" xmlns="http://www.w3.org/2000/svg" xmlns:xlink="http://www.w3.org/1999/xlink" viewBox="100 100 880 880" shape-rendering="geometricPrecision" text-rendering="geometricPrecision" project-id="52c56f48cfe445a9b4f101ea9b20bd18" export-id="1399f36cfd1d4a72a912bbbe6a2ffb6e" cached="false"><defs>
    <linearGradient id="bestagonGradient" x1="0%" y1="25%" x2="100%" y2="75%">
      <stop offset="0%" stop-color="#22fbfe" />
      <stop offset="30%" stop-color="#266bf8" />
      <stop offset="70%" stop-color="#e55d32" />
    </linearGradient>
  </defs><path id="bestagon-s-path1" d="M477.88174,364.36942c-16.26087-9.38822-29.73145-21.75337-40.12078-36.00959l-77.61476,44.8109c12.00693,33.04476-1.03092,70.93621-32.53573,89.12552-35.33226,20.39909-80.51145,8.29336-100.91054-27.0389s-8.29336-80.51145,27.0389-100.91054c31.5048-18.18931,70.83869-10.53469,93.45283,16.38599l77.4744-44.72986c-17.01058-37.06806-16.40148-81.54067,5.54319-119.54994c35.96586-62.29469,115.62173-83.63845,177.91638-47.67262c49.67633,28.68064,73.31143,85.14434,62.6098,138.43183l-24.65845-14.23656c4.36367-39.64257-14.4821-79.96731-51.23531-101.18678-49.58734-28.62927-112.99448-11.63929-141.62381,37.94818s-11.63951,112.99465,37.94782,141.62391c36.75323,21.21948,81.09835,17.37803,113.248-6.22232l24.65844,14.23656c-40.7975,35.91162-101.51405,43.67488-151.19038,14.99424v-.00002Zm28.18613-48.8198c-35.33226-20.39909-47.43799-65.57828-27.0389-100.91054s65.57828-47.43799,100.91054-27.0389c31.5048,18.1893,44.54265,56.08076,32.53573,89.12552l76.66637,44.26335C713.02627,291.79379,749.33697,273.1593,790,273.1593c71.93171,0,130.24389,58.31213,130.24389,130.2438c0,57.36128-37.08145,106.06173-88.58058,123.43759v-28.47312c36.51331-16.04224,62.01267-52.52552,62.01267-94.96447c0-57.25853-46.41732-103.67573-103.67599-103.67573s-103.67599,46.41721-103.67599,103.67573c0,42.43897,25.49936,78.92225,62.01269,94.96448v28.47311c-51.49913-17.37586-88.58058-66.07631-88.58058-123.43759c0-21.95479,5.43223-42.64083,15.02592-60.78733L599.5207,299.16362c-22.61414,26.92069-61.94802,34.5753-93.45283,16.38599v.00001ZM355.7966,511.11605c-17.4944,10.10039-36.35802,15.68094-55.23869,17.10396v75.63735c34.62107,6.12407,60.9171,36.36091,60.9171,72.73953c0,40.79818-33.07346,73.87164-73.87164,73.87164s-73.87164-33.07346-73.87164-73.87164c0-36.37861,26.29604-66.61545,60.9171-72.73953v-76.27434c-39.10662-4.87836-75.54474-27.37876-96.76862-64.13959-35.96585-62.29469-14.62216-141.95058,47.67249-177.91642c49.67633-28.68064,110.39288-20.91739,151.19038,14.99424l-24.65845,14.23656c-32.14964-23.60033-76.49477-27.44179-113.24798-6.22231-49.58734,28.62927-66.57716,92.03644-37.94782,141.62391s92.03648,66.57744,141.62381,37.94818c36.75323-21.21949,55.59899-61.54422,51.23531-101.1868l24.65844-14.23655c10.70163,53.28748-12.93347,109.75119-62.6098,138.43183l.00001-.00002ZM417.84726,676.5969c0,21.34945-5.1368,41.49913-14.24187,59.28054l77.06189,44.4917c22.61414-26.92069,61.94802-34.5753,93.45283-16.38599c35.33226,20.39909,47.43799,65.57828,27.0389,100.91054s-65.57828,47.43799-100.91054,27.0389c-31.5048-18.18931-44.54265-56.08076-32.53573-89.12552l-78.1721-45.13268c-23.86236,29.9619-60.6571,49.16632-101.93727,49.16632-71.93171,0-130.24389-58.31213-130.24389-130.2438c0-57.36128,37.08145-106.06173,88.58058-123.43759v28.47312c-36.51331,16.04224-62.01267,52.52552-62.01267,94.96447c0,57.25853,46.41732,103.67573,103.67599,103.67573s103.67599-46.41721,103.67599-103.67573c0-42.43897-25.49936-78.92225-62.01269-94.96448v-28.47311c51.49913,17.37586,88.58058,66.07631,88.58058,123.43759v-.00001Zm184.45898,38.56645c16.00494,9.24045,29.30672,21.36487,39.62792,35.33785l75.58576-43.63946c-12.00693-33.04476,1.03092-70.93621,32.53573-89.12552c35.33226-20.39909,80.51145-8.29336,100.91054,27.0389s8.29336,80.51145-27.0389,100.91054c-31.5048,18.1893-70.83869,10.53469-93.45283-16.38599l-75.30177,43.4755c17.3671,37.218,16.89984,82.03704-5.19396,120.30461-35.96585,62.29469-115.62173,83.63845-177.91638,47.67262-49.67633-28.68064-73.31143-85.14434-62.6098-138.43183L434.111,816.55713c-4.36367,39.64257,14.4821,79.96731,51.23531,101.18678c49.58734,28.62927,112.99448,11.63929,141.62381-37.94818s11.63951-112.99465-37.94782-141.62391c-36.75323-21.21949-81.09835-17.37803-113.248,6.22232l-24.65844-14.23655c40.7975-35.91162,101.51405-43.67488,151.19038-14.99424ZM721.86953,568.91642c17.47501-10.0892,36.31623-15.66857,55.17593-17.09922v-75.67456c-34.62107-6.12407-60.9171-36.36091-60.9171-72.73953c0-40.79818,33.07346-73.87164,73.87164-73.87164s73.87164,33.07346,73.87164,73.87164c0,36.37861-26.29604,66.61545-60.9171,72.73953v76.29899c39.13039,4.8621,75.59615,27.36691,96.83137,64.1474c35.96586,62.29469,14.62216,141.95058-47.67249,177.91642-49.67633,28.68064-110.39288,20.91739-151.19038-14.99424l24.65845-14.23656c32.14964,23.60033,76.49477,27.44179,113.24798,6.22231c49.58734-28.62927,66.57716-92.03644,37.94782-141.62391s-92.03648-66.57744-141.62381-37.94818c-36.75323,21.21948-55.59899,61.54422-51.23531,101.1868l-24.65844,14.23655c-10.70163-53.28748,12.93347-109.75119,62.6098-138.43183v.00003Z" stroke-width="0" fill="url(#bestagonGradient)"/></svg>
