<svg id="visual" viewBox="0 0 900 200" preserveAspectRatio="none" xmlns="http://www.w3.org/2000/svg" xmlns:xlink="http://www.w3.org/1999/xlink" version="1.1"><path d="M0 182L21.5 183.5C43 185 86 188 128.8 188.8C171.7 189.7 214.3 188.3 257.2 183C300 177.7 343 168.3 385.8 168.5C428.7 168.7 471.3 178.3 514.2 174.5C557 170.7 600 153.3 642.8 149.8C685.7 146.3 728.3 156.7 771.2 154C814 151.3 857 135.7 878.5 127.8L900 120L900 0L878.5 0C857 0 814 0 771.2 0C728.3 0 685.7 0 642.8 0C600 0 557 0 514.2 0C471.3 0 428.7 0 385.8 0C343 0 300 0 257.2 0C214.3 0 171.7 0 128.8 0C86 0 43 0 21.5 0L0 0Z" fill="#22fbfe"></path><path d="M0 128L21.5 139.5C43 151 86 174 128.8 179.5C171.7 185 214.3 173 257.2 164.3C300 155.7 343 150.3 385.8 156.5C428.7 162.7 471.3 180.3 514.2 181.8C557 183.3 600 168.7 642.8 154.7C685.7 140.7 728.3 127.3 771.2 123.7C814 120 857 126 878.5 129L900 132L900 0L878.5 0C857 0 814 0 771.2 0C728.3 0 685.7 0 642.8 0C600 0 557 0 514.2 0C471.3 0 428.7 0 385.8 0C343 0 300 0 257.2 0C214.3 0 171.7 0 128.8 0C86 0 43 0 21.5 0L0 0Z" fill="#266bf8"></path><path d="M0 137L21.5 128.7C43 120.3 86 103.7 128.8 95.7C171.7 87.7 214.3 88.3 257.2 90.7C300 93 343 97 385.8 108.3C428.7 119.7 471.3 138.3 514.2 139.5C557 140.7 600 124.3 642.8 111.5C685.7 98.7 728.3 89.3 771.2 92.7C814 96 857 112 878.5 120L900 128L900 0L878.5 0C857 0 814 0 771.2 0C728.3 0 685.7 0 642.8 0C600 0 557 0 514.2 0C471.3 0 428.7 0 385.8 0C343 0 300 0 257.2 0C214.3 0 171.7 0 128.8 0C86 0 43 0 21.5 0L0 0Z" fill="#e55d32"></path><path d="M0 108L21.5 101.3C43 94.7 86 81.3 128.8 73.2C171.7 65 214.3 62 257.2 68.7C300 75.3 343 91.7 385.8 91C428.7 90.3 471.3 72.7 514.2 67C557 61.3 600 67.7 642.8 74.7C685.7 81.7 728.3 89.3 771.2 87.5C814 85.7 857 74.3 878.5 68.7L900 63L900 0L878.5 0C857 0 814 0 771.2 0C728.3 0 685.7 0 642.8 0C600 0 557 0 514.2 0C471.3 0 428.7 0 385.8 0C343 0 300 0 257.2 0C214.3 0 171.7 0 128.8 0C86 0 43 0 21.5 0L0 0Z" fill="#fdb209"></path><path d="M0 76L21.5 72.8C43 69.7 86 63.3 128.8 61C171.7 58.7 214.3 60.3 257.2 62C300 63.7 343 65.3 385.8 61.2C428.7 57 471.3 47 514.2 42.8C557 38.7 600 40.3 642.8 41.8C685.7 43.3 728.3 44.7 771.2 45.2C814 45.7 857 45.3 878.5 45.2L900 45L900 0L878.5 0C857 0 814 0 771.2 0C728.3 0 685.7 0 642.8 0C600 0 557 0 514.2 0C471.3 0 428.7 0 385.8 0C343 0 300 0 257.2 0C214.3 0 171.7 0 128.8 0C86 0 43 0 21.5 0L0 0Z" fill="#1e1f24"></path></svg>