<svg id="visual" viewBox="0 0 900 150" xmlns="http://www.w3.org/2000/svg" xmlns:xlink="http://www.w3.org/1999/xlink" version="1.1"><path d="M0 119L18.8 120.2C37.7 121.3 75.3 123.7 112.8 125C150.3 126.3 187.7 126.7 225.2 129.5C262.7 132.3 300.3 137.7 337.8 128.2C375.3 118.7 412.7 94.3 450.2 94.2C487.7 94 525.3 118 562.8 121.5C600.3 125 637.7 108 675.2 97C712.7 86 750.3 81 787.8 87.2C825.3 93.3 862.7 110.7 881.3 119.3L900 128L900 0L881.3 0C862.7 0 825.3 0 787.8 0C750.3 0 712.7 0 675.2 0C637.7 0 600.3 0 562.8 0C525.3 0 487.7 0 450.2 0C412.7 0 375.3 0 337.8 0C300.3 0 262.7 0 225.2 0C187.7 0 150.3 0 112.8 0C75.3 0 37.7 0 18.8 0L0 0Z" fill="#266bf8"></path><path d="M0 67L18.8 65.2C37.7 63.3 75.3 59.7 112.8 63C150.3 66.3 187.7 76.7 225.2 85.3C262.7 94 300.3 101 337.8 97.3C375.3 93.7 412.7 79.3 450.2 70.3C487.7 61.3 525.3 57.7 562.8 59.7C600.3 61.7 637.7 69.3 675.2 78.5C712.7 87.7 750.3 98.3 787.8 96C825.3 93.7 862.7 78.3 881.3 70.7L900 63L900 0L881.3 0C862.7 0 825.3 0 787.8 0C750.3 0 712.7 0 675.2 0C637.7 0 600.3 0 562.8 0C525.3 0 487.7 0 450.2 0C412.7 0 375.3 0 337.8 0C300.3 0 262.7 0 225.2 0C187.7 0 150.3 0 112.8 0C75.3 0 37.7 0 18.8 0L0 0Z" fill="#e55d32"></path><path d="M0 45L18.8 51.5C37.7 58 75.3 71 112.8 73.5C150.3 76 187.7 68 225.2 62.3C262.7 56.7 300.3 53.3 337.8 56.8C375.3 60.3 412.7 70.7 450.2 75C487.7 79.3 525.3 77.7 562.8 72C600.3 66.3 637.7 56.7 675.2 55.5C712.7 54.3 750.3 61.7 787.8 66.8C825.3 72 862.7 75 881.3 76.5L900 78L900 0L881.3 0C862.7 0 825.3 0 787.8 0C750.3 0 712.7 0 675.2 0C637.7 0 600.3 0 562.8 0C525.3 0 487.7 0 450.2 0C412.7 0 375.3 0 337.8 0C300.3 0 262.7 0 225.2 0C187.7 0 150.3 0 112.8 0C75.3 0 37.7 0 18.8 0L0 0Z" fill="#fdb209"></path><path d="M0 28L18.8 27.5C37.7 27 75.3 26 112.8 28.5C150.3 31 187.7 37 225.2 40.5C262.7 44 300.3 45 337.8 42.8C375.3 40.7 412.7 35.3 450.2 35.5C487.7 35.7 525.3 41.3 562.8 41.7C600.3 42 637.7 37 675.2 34C712.7 31 750.3 30 787.8 31.8C825.3 33.7 862.7 38.3 881.3 40.7L900 43L900 0L881.3 0C862.7 0 825.3 0 787.8 0C750.3 0 712.7 0 675.2 0C637.7 0 600.3 0 562.8 0C525.3 0 487.7 0 450.2 0C412.7 0 375.3 0 337.8 0C300.3 0 262.7 0 225.2 0C187.7 0 150.3 0 112.8 0C75.3 0 37.7 0 18.8 0L0 0Z" fill="#202336"></path></svg>